<?xml version="1.0" encoding="UTF-8" standalone="no"?>
<svg
   xmlns:dc="http://purl.org/dc/elements/1.1/"
   xmlns:cc="http://creativecommons.org/ns#"
   xmlns:rdf="http://www.w3.org/1999/02/22-rdf-syntax-ns#"
   xmlns:svg="http://www.w3.org/2000/svg"
   xmlns="http://www.w3.org/2000/svg"
   xmlns:sodipodi="http://sodipodi.sourceforge.net/DTD/sodipodi-0.dtd"
   xmlns:inkscape="http://www.inkscape.org/namespaces/inkscape"
   width="2000"
   height="2000"
   viewBox="0 0 529.16665 529.16668"
   version="1.1"
   id="svg849"
   inkscape:version="1.0.2 (e86c870879, 2021-01-15, custom)"
   sodipodi:docname="Pelican3.svg"
   inkscape:export-filename="C:\Users\marti\image.png"
   inkscape:export-xdpi="200"
   inkscape:export-ydpi="200">
  <defs
     id="defs843" />
  <sodipodi:namedview
     id="base"
     pagecolor="#ffffff"
     bordercolor="#666666"
     borderopacity="1.0"
     inkscape:pageopacity="0.0"
     inkscape:pageshadow="2"
     inkscape:zoom="0.24748737"
     inkscape:cx="-168.16749"
     inkscape:cy="1146.8574"
     inkscape:document-units="mm"
     inkscape:current-layer="layer1"
     inkscape:document-rotation="0"
     showgrid="false"
     units="px"
     inkscape:window-width="1920"
     inkscape:window-height="1001"
     inkscape:window-x="-9"
     inkscape:window-y="-9"
     inkscape:window-maximized="1"
     showguides="true" />
  <metadata
     id="metadata846">
    <rdf:RDF>
      <cc:Work
         rdf:about="">
        <dc:format>image/svg+xml</dc:format>
        <dc:type
           rdf:resource="http://purl.org/dc/dcmitype/StillImage" />
        <dc:title></dc:title>
      </cc:Work>
    </rdf:RDF>
  </metadata>
  <g
     inkscape:label="Calque 1"
     inkscape:groupmode="layer"
     id="layer1">
    <path
       id="path1412"
       style="fill:#e2e0dd;stroke-width:0.999999;fill-opacity:1"
       d="M 1000,0 C 734.78351,-2.6521648e-6 480.4296,105.35684 292.89322,292.89322 105.35684,480.4296 -2.6521649e-6,734.78351 0,1000 v 0.6445 H 0.64453125 999.35547 c 108.33903,-95.75039 14.21363,645.0408 0,998.711 V 2000 H 1000 c 265.2165,0 519.5704,-105.3568 707.1068,-292.8932 C 1894.6432,1519.5704 2000,1265.2165 2000,1000 2000,734.78351 1894.6432,480.4296 1707.1068,292.89322 1519.5704,105.35684 1265.2165,-2.6521649e-6 1000,0 Z"
       transform="scale(0.26458333)"
       sodipodi:nodetypes="ssscccccsssss" />
    <path
       id="path1412-3"
       style="fill:#c2bbb6;fill-opacity:1;stroke-width:0.230563"
       d="M 264.56067,32.905127 C 203.71165,32.905126 145.35484,57.316244 102.32808,100.76831 59.301315,144.22037 35.129129,203.15402 35.12913,264.60452 v 0.14933 H 35.277006 264.4128 c 61.1421,-66.78649 27.07356,161.17283 23.8125,243.11801 60.40751,4.03392 115.12581,-39.60995 151.41918,-74.89541 43.02676,-43.45206 54.34774,-106.92143 54.34774,-168.37193 0,-61.4505 -24.17217,-120.38415 -67.19893,-163.83621 C 383.76652,57.316244 325.40971,32.905126 264.56067,32.905127 Z"
       sodipodi:nodetypes="ssscccccsss" />
    <path
       id="path1412-8"
       style="fill:#ffa138;fill-opacity:1;stroke-width:0.264583"
       d="M 264.4128,264.75385 C 220.4773,371.96772 124.40217,498.98946 0.17053983,528.99611 V 264.75385 C 96.900318,238.64926 289.506,246.57181 264.4128,264.75385 Z"
       sodipodi:nodetypes="cccc" />
    <circle
       style="fill:#000000;fill-opacity:1;stroke-width:0.426359"
       id="path1486"
       cx="167.82143"
       cy="166.30952"
       r="26.458334" />
    <path
       id="path1412-8-9"
       style="fill:#ff8b06;fill-opacity:1;stroke-width:0.243196"
       d="M 264.58334,264.75385 C 168.52851,349.22705 137.4848,478.90176 0.17053983,528.99611 V 264.75385 C 100.48525,237.8698 291.79353,246.51381 264.58334,264.75385 Z"
       sodipodi:nodetypes="cccc"
       inkscape:export-filename="C:\Users\marti\path1412-8-9.png"
       inkscape:export-xdpi="200"
       inkscape:export-ydpi="200" />
  </g>
</svg>
